<svg width="30.000000" height="52.000000" viewBox="0 0 30 52" fill="none" xmlns="http://www.w3.org/2000/svg" xmlns:xlink="http://www.w3.org/1999/xlink">
	<desc>
			Created with Pixso.
	</desc>
	<defs>
		<filter id="filter_29_435_dd" x="0.000000" y="0.000000" width="30.000000" height="52.000000" filterUnits="userSpaceOnUse" color-interpolation-filters="sRGB">
			<feFlood flood-opacity="0" result="BackgroundImageFix"/>
			<feGaussianBlur in="BackgroundImage" stdDeviation="2.33333"/>
			<feComposite in2="SourceAlpha" operator="in" result="effect_backgroundBlur_1"/>
			<feBlend mode="normal" in="SourceGraphic" in2="effect_backgroundBlur_1" result="shape"/>
			<feColorMatrix in="SourceAlpha" type="matrix" values="0 0 0 0 0 0 0 0 0 0 0 0 0 0 0 0 0 0 127 0" result="hardAlpha"/>
			<feOffset dx="0.2" dy="0.1"/>
			<feGaussianBlur stdDeviation="0.333333"/>
			<feComposite in2="hardAlpha" operator="arithmetic" k2="-1" k3="1"/>
			<feColorMatrix type="matrix" values="0 0 0 0 1 0 0 0 0 1 0 0 0 0 1 0 0 0 0.6 0"/>
			<feBlend mode="normal" in2="shape" result="effect_innerShadow_2"/>
		</filter>
		<clipPath id="clip29_435">
			<rect id="Frame" rx="-0.500000" width="29.000000" height="51.000000" transform="translate(0.500000 0.500000)" fill="white" fill-opacity="0"/>
		</clipPath>
	</defs>
	<g filter="url(#filter_29_435_dd)">
		<rect id="Frame" rx="-0.500000" width="29.000000" height="51.000000" transform="translate(0.500000 0.500000)" fill="#FFFFFF" fill-opacity="0"/>
		<g clip-path="url(#clip29_435)">
			<path id="Vector" d="M30 0C30 0 13.65 5.61 12.66 6.06C8.93 7.73 5.75 10.46 3.51 13.93C1.27 17.4 0.06 21.45 0.04 25.6L0.04 52C0.04 52 16.37 46.38 17.38 45.93C21.12 44.26 24.3 41.53 26.55 38.06C28.8 34.59 30.01 30.54 30.04 26.38L30.04 25.6L30 0Z" fill="#60AAFB" fill-opacity="0.200000" fill-rule="nonzero"/>
		</g>
	</g>
</svg>
