<svg width="156.000000" height="32.000000" viewBox="0 0 156 32" fill="none" xmlns="http://www.w3.org/2000/svg" xmlns:xlink="http://www.w3.org/1999/xlink">
	<desc>
			Created with Pixso.
	</desc>
	<defs>
		<clipPath id="clip29_833">
			<rect id="Frame" rx="-0.500000" width="155.000000" height="31.000000" transform="translate(0.500000 0.500000)" fill="white" fill-opacity="0"/>
		</clipPath>
	</defs>
	<rect id="Frame" rx="-0.500000" width="155.000000" height="31.000000" transform="translate(0.500000 0.500000)" fill="#FFFFFF" fill-opacity="0"/>
	<g clip-path="url(#clip29_833)">
		<path id="Vector" d="M0 19.83L0 8C-0.01 7.9 0.01 7.8 0.05 7.7C0.08 7.61 0.14 7.53 0.21 7.46C0.28 7.39 0.36 7.33 0.45 7.29C0.54 7.26 0.64 7.24 0.73 7.24L3.44 7.24C3.54 7.24 3.64 7.26 3.73 7.29C3.83 7.33 3.91 7.39 3.98 7.46C4.05 7.53 4.1 7.61 4.14 7.71C4.17 7.8 4.19 7.9 4.18 8L4.18 12.35L9.48 12.35L9.48 8C9.48 7.9 9.49 7.8 9.53 7.7C9.57 7.61 9.62 7.53 9.69 7.46C9.76 7.38 9.85 7.33 9.94 7.29C10.03 7.25 10.13 7.24 10.23 7.24L12.93 7.24C13.03 7.24 13.13 7.25 13.22 7.29C13.31 7.33 13.39 7.39 13.46 7.46C13.53 7.53 13.58 7.61 13.62 7.71C13.65 7.8 13.67 7.9 13.67 8L13.67 19.83C13.67 19.93 13.66 20.03 13.62 20.12C13.59 20.22 13.53 20.3 13.46 20.37C13.39 20.44 13.31 20.49 13.22 20.53C13.13 20.56 13.03 20.58 12.93 20.58L10.23 20.58C10.13 20.58 10.03 20.56 9.94 20.52C9.85 20.49 9.76 20.43 9.69 20.36C9.62 20.3 9.57 20.21 9.53 20.12C9.5 20.03 9.48 19.93 9.48 19.83L9.48 15.3L4.18 15.3L4.18 19.83C4.19 19.93 4.17 20.03 4.13 20.12C4.1 20.22 4.04 20.3 3.97 20.37C3.9 20.44 3.82 20.49 3.73 20.52C3.64 20.56 3.54 20.58 3.44 20.58L0.73 20.58C0.64 20.58 0.54 20.56 0.45 20.53C0.35 20.49 0.27 20.44 0.2 20.37C0.13 20.3 0.08 20.21 0.04 20.12C0.01 20.03 -0.01 19.93 0 19.83Z" fill="#000000" fill-opacity="1.000000" fill-rule="nonzero"/>
		<path id="Vector" d="M19.22 21.84L20.8 22.05C21.94 22.05 22.74 21.21 23.19 19.53C21.93 19.57 20.7 19.12 19.75 18.28C18.84 17.45 18.05 15.97 17.38 13.84L15.57 7.97C15.55 7.9 15.54 7.82 15.54 7.75C15.55 7.63 15.61 7.52 15.69 7.44C15.75 7.37 15.82 7.32 15.9 7.29C15.97 7.25 16.06 7.24 16.15 7.24L18.67 7.24C18.92 7.25 19.15 7.33 19.34 7.48C19.54 7.63 19.68 7.83 19.75 8.07L21.33 13.23C21.57 14.17 21.98 15.06 22.54 15.86C22.71 16.08 22.93 16.26 23.18 16.39C23.43 16.51 23.7 16.58 23.98 16.58L26.39 8.07C26.46 7.84 26.59 7.63 26.78 7.48C26.95 7.33 27.18 7.24 27.41 7.24L29.96 7.24C30.05 7.23 30.13 7.25 30.21 7.28C30.29 7.32 30.36 7.37 30.41 7.44C30.49 7.53 30.54 7.64 30.56 7.76C30.56 7.83 30.55 7.9 30.54 7.97L27.36 19.33C26.8 21.34 26.1 22.78 25.27 23.64C24.85 24.07 24.35 24.4 23.79 24.62C23.24 24.85 22.65 24.95 22.05 24.93C21.12 24.95 20.19 24.91 19.26 24.78C18.9 24.76 18.54 24.63 18.24 24.42C18.17 24.36 18.12 24.28 18.09 24.2C18.05 24.11 18.03 24.02 18.03 23.93L18.03 22.59C18.03 22.5 18.05 22.4 18.08 22.3C18.12 22.21 18.17 22.12 18.24 22.05C18.31 21.98 18.39 21.93 18.48 21.89C18.58 21.85 18.68 21.83 18.77 21.84L19.22 21.84Z" fill="#000000" fill-opacity="1.000000" fill-rule="nonzero"/>
		<path id="Vector" d="M32.3 23.94L32.3 8C32.3 7.9 32.31 7.8 32.35 7.7C32.39 7.61 32.44 7.53 32.51 7.46C32.58 7.39 32.66 7.33 32.75 7.29C32.84 7.26 32.94 7.24 33.04 7.24L35.37 7.24C35.47 7.24 35.57 7.26 35.66 7.3C35.75 7.33 35.84 7.39 35.9 7.46C35.97 7.53 36.03 7.61 36.06 7.71C36.1 7.8 36.11 7.9 36.11 8L36.11 8.36C37.4 7.45 38.95 6.97 40.53 7C41.32 6.98 42.11 7.13 42.83 7.44C43.56 7.75 44.21 8.21 44.75 8.79C45.88 9.99 46.45 11.7 46.45 13.92C46.45 16.15 45.86 17.86 44.69 19.04C43.52 20.23 41.94 20.82 39.96 20.82C38.77 20.79 37.59 20.58 36.46 20.2L36.46 23.94C36.47 24.04 36.45 24.14 36.41 24.23C36.38 24.33 36.32 24.41 36.25 24.48C36.19 24.55 36.1 24.61 36.01 24.64C35.92 24.68 35.83 24.7 35.73 24.7L33.02 24.7C32.92 24.7 32.82 24.68 32.73 24.64C32.64 24.61 32.56 24.55 32.49 24.48C32.43 24.41 32.37 24.32 32.34 24.23C32.31 24.14 32.29 24.04 32.3 23.94ZM36.48 17.39C37.32 17.68 38.21 17.85 39.1 17.89C40.21 17.89 41 17.57 41.46 16.94C41.92 16.3 42.15 15.29 42.15 13.91C42.15 12.52 41.93 11.51 41.49 10.89C41.27 10.57 40.97 10.32 40.63 10.16C40.28 9.99 39.9 9.92 39.52 9.94C38.65 9.94 37.63 10.31 36.48 11.04L36.48 17.39Z" fill="#000000" fill-opacity="1.000000" fill-rule="nonzero"/>
		<path id="Vector" d="M76.4 19.83L76.4 8C76.4 7.9 76.41 7.8 76.45 7.7C76.49 7.61 76.54 7.53 76.61 7.46C76.68 7.39 76.76 7.33 76.85 7.29C76.94 7.26 77.04 7.24 77.14 7.24L79.67 7.24C79.76 7.24 79.86 7.25 79.96 7.29C80.05 7.33 80.13 7.38 80.2 7.46C80.27 7.53 80.33 7.61 80.37 7.7C80.4 7.8 80.42 7.9 80.42 8L80.42 15.99L84.67 8.12C84.81 7.86 85.02 7.64 85.27 7.49C85.5 7.34 85.77 7.25 86.04 7.24L89.43 7.24C89.53 7.24 89.63 7.25 89.72 7.29C89.81 7.33 89.9 7.38 89.97 7.46C90.04 7.53 90.09 7.61 90.13 7.7C90.17 7.8 90.18 7.9 90.18 8L90.18 19.83C90.18 19.93 90.17 20.03 90.13 20.12C90.09 20.22 90.04 20.3 89.97 20.37C89.9 20.44 89.81 20.49 89.72 20.53C89.63 20.56 89.53 20.58 89.43 20.58L86.9 20.58C86.8 20.58 86.7 20.56 86.61 20.52C86.52 20.49 86.44 20.43 86.37 20.36C86.3 20.29 86.25 20.21 86.21 20.12C86.18 20.03 86.16 19.93 86.16 19.83L86.16 11.85L81.9 19.7C81.75 19.95 81.55 20.16 81.31 20.32C81.08 20.48 80.81 20.57 80.53 20.58L77.13 20.58C77.03 20.58 76.93 20.56 76.84 20.53C76.75 20.49 76.67 20.44 76.6 20.37C76.53 20.3 76.48 20.22 76.44 20.12C76.4 20.03 76.39 19.93 76.39 19.83L76.4 19.83Z" fill="#000000" fill-opacity="1.000000" fill-rule="nonzero"/>
		<path id="Vector" d="M93.15 19.83L93.15 8C93.15 7.9 93.16 7.8 93.2 7.7C93.24 7.61 93.29 7.53 93.36 7.46C93.43 7.39 93.51 7.33 93.6 7.29C93.7 7.26 93.79 7.24 93.89 7.24L96.6 7.24C96.7 7.24 96.8 7.25 96.89 7.29C96.98 7.33 97.06 7.38 97.13 7.46C97.2 7.53 97.26 7.61 97.29 7.71C97.33 7.8 97.34 7.9 97.34 8L97.34 12.35L102.64 12.35L102.64 8C102.63 7.9 102.65 7.8 102.69 7.7C102.72 7.61 102.78 7.53 102.85 7.46C102.92 7.38 103 7.33 103.1 7.29C103.19 7.25 103.29 7.24 103.39 7.24L106.09 7.24C106.18 7.24 106.28 7.26 106.38 7.29C106.47 7.33 106.55 7.39 106.62 7.46C106.69 7.53 106.74 7.61 106.78 7.71C106.81 7.8 106.83 7.9 106.83 8L106.83 19.83C106.83 19.93 106.81 20.03 106.78 20.12C106.74 20.21 106.69 20.3 106.62 20.37C106.55 20.44 106.47 20.49 106.37 20.53C106.28 20.56 106.18 20.58 106.09 20.58L103.39 20.58C103.29 20.58 103.19 20.56 103.1 20.52C103.01 20.49 102.92 20.43 102.85 20.36C102.78 20.3 102.73 20.21 102.69 20.12C102.65 20.03 102.63 19.93 102.64 19.83L102.64 15.3L97.33 15.3L97.33 19.83C97.33 19.93 97.32 20.03 97.28 20.12C97.24 20.22 97.19 20.3 97.12 20.37C97.05 20.44 96.97 20.49 96.88 20.53C96.78 20.56 96.69 20.58 96.59 20.58L93.88 20.58C93.78 20.58 93.69 20.56 93.6 20.53C93.5 20.49 93.42 20.44 93.35 20.37C93.28 20.3 93.23 20.21 93.2 20.12C93.16 20.03 93.15 19.93 93.15 19.83Z" fill="#000000" fill-opacity="1.000000" fill-rule="nonzero"/>
		<path id="Vector" d="M110.64 19.7C110.13 19.36 109.71 18.88 109.43 18.33C109.15 17.78 109.01 17.16 109.04 16.54C109.01 15.92 109.15 15.3 109.43 14.75C109.71 14.2 110.13 13.74 110.64 13.4C111.88 12.62 113.32 12.24 114.78 12.31L118.8 12.31C118.8 11.35 118.6 10.69 118.2 10.32C117.8 9.95 117.12 9.76 116.13 9.76C115.14 9.76 114.45 10 114.04 10.5C113.87 10.73 113.65 10.91 113.4 11.04C113.14 11.17 112.86 11.24 112.58 11.24L110.77 11.24C110.67 11.24 110.57 11.22 110.48 11.18C110.39 11.15 110.3 11.09 110.23 11.02C110.16 10.95 110.11 10.87 110.07 10.78C110.04 10.69 110.02 10.59 110.02 10.49C110.02 8.16 112.22 7 116.62 7C118.54 7 120.08 7.43 121.24 8.3C122.4 9.16 122.98 10.5 122.98 12.31L122.98 19.83C122.98 19.93 122.97 20.03 122.93 20.12C122.9 20.21 122.84 20.3 122.77 20.37C122.7 20.44 122.62 20.49 122.53 20.53C122.44 20.56 122.34 20.58 122.24 20.57L119.91 20.57C119.81 20.58 119.71 20.56 119.62 20.53C119.53 20.49 119.44 20.43 119.37 20.36C119.31 20.29 119.25 20.21 119.22 20.12C119.18 20.03 119.17 19.93 119.17 19.83L119.17 19.45C117.88 20.38 116.33 20.86 114.75 20.83C113.3 20.88 111.87 20.49 110.64 19.7ZM113.73 15.48C113.57 15.61 113.45 15.77 113.36 15.96C113.28 16.15 113.23 16.35 113.23 16.56C113.23 16.76 113.28 16.96 113.36 17.15C113.45 17.33 113.57 17.5 113.73 17.63C114.15 17.94 114.66 18.09 115.17 18.06C116.45 18.05 117.69 17.67 118.76 16.96L118.76 15.05L115.05 15.05C114.57 15.03 114.11 15.18 113.73 15.48Z" fill="#000000" fill-opacity="1.000000" fill-rule="nonzero"/>
		<path id="Vector" d="M125.95 19.83L125.95 8C125.94 7.9 125.96 7.8 126 7.7C126.03 7.61 126.09 7.53 126.15 7.46C126.22 7.39 126.31 7.33 126.4 7.29C126.49 7.26 126.58 7.24 126.68 7.24L129.39 7.24C129.49 7.24 129.59 7.25 129.68 7.29C129.77 7.33 129.86 7.39 129.92 7.46C129.99 7.53 130.05 7.61 130.08 7.71C130.12 7.8 130.13 7.9 130.13 8L130.13 12.35L135.43 12.35L135.43 8C135.43 7.9 135.44 7.8 135.48 7.7C135.52 7.61 135.57 7.53 135.64 7.46C135.71 7.39 135.8 7.33 135.89 7.29C135.98 7.25 136.08 7.24 136.18 7.24L138.88 7.24C138.98 7.24 139.07 7.25 139.17 7.29C139.26 7.33 139.34 7.38 139.41 7.46C139.48 7.53 139.53 7.61 139.57 7.71C139.6 7.8 139.62 7.9 139.62 8L139.62 19.83C139.62 19.93 139.6 20.03 139.57 20.12C139.53 20.22 139.48 20.3 139.41 20.37C139.34 20.44 139.26 20.49 139.16 20.53C139.07 20.56 138.97 20.58 138.88 20.58L136.18 20.58C136.08 20.58 135.98 20.56 135.89 20.52C135.8 20.49 135.71 20.43 135.64 20.36C135.57 20.3 135.52 20.21 135.48 20.12C135.45 20.03 135.43 19.93 135.43 19.83L135.43 15.3L130.13 15.3L130.13 19.83C130.13 19.93 130.12 20.03 130.08 20.12C130.04 20.22 129.99 20.3 129.92 20.37C129.85 20.44 129.77 20.49 129.68 20.52C129.59 20.56 129.49 20.58 129.39 20.58L126.68 20.58C126.58 20.58 126.49 20.56 126.39 20.53C126.3 20.49 126.22 20.44 126.15 20.37C126.08 20.3 126.03 20.22 125.99 20.12C125.96 20.03 125.94 19.93 125.95 19.83Z" fill="#000000" fill-opacity="1.000000" fill-rule="nonzero"/>
		<path id="Vector" d="M149.02 20.82C146.76 20.82 145 20.24 143.74 19.07C142.48 17.9 141.85 16.18 141.85 13.91C141.85 11.65 142.48 9.93 143.73 8.76C144.98 7.58 146.72 7 148.95 7C151.18 7 152.9 7.36 154.1 8.07C154.66 8.38 155.13 8.84 155.44 9.4C155.76 9.96 155.91 10.59 155.89 11.24C155.89 11.33 155.88 11.43 155.84 11.52C155.81 11.61 155.75 11.7 155.68 11.77C155.61 11.84 155.53 11.89 155.43 11.92C155.34 11.96 155.24 11.98 155.14 11.97L153.34 11.97C153.05 11.96 152.77 11.87 152.53 11.72C152.28 11.56 152.08 11.35 151.95 11.09C151.47 10.32 150.63 9.94 149.43 9.94C148.22 9.94 147.38 10.25 146.9 10.87C146.42 11.5 146.17 12.49 146.17 13.91C146.17 15.33 146.42 16.33 146.92 16.95C147.42 17.56 148.28 17.89 149.51 17.89C150.74 17.89 151.59 17.51 152.07 16.74C152.2 16.49 152.4 16.27 152.64 16.12C152.88 15.96 153.16 15.87 153.44 15.86L155.25 15.86C155.35 15.85 155.45 15.87 155.54 15.91C155.63 15.95 155.72 16 155.79 16.07C155.86 16.14 155.91 16.22 155.95 16.32C155.98 16.41 156 16.5 156 16.6C156.02 17.25 155.87 17.88 155.55 18.44C155.23 19 154.77 19.46 154.2 19.77C153 20.47 151.28 20.82 149.02 20.82Z" fill="#000000" fill-opacity="1.000000" fill-rule="nonzero"/>
		<path id="Vector" d="M56.47 16.49L56.47 4.19C56.47 4.19 52.71 5.46 52.49 5.57C51.62 5.94 50.89 6.56 50.37 7.35C49.86 8.14 49.58 9.07 49.57 10.01L49.57 19.96C49.58 20.91 49.86 21.83 50.37 22.61C50.89 23.4 51.62 24.03 52.48 24.41C52.71 24.51 56.47 25.78 56.47 25.78L56.47 20.97L54.65 20.97L56.47 16.49Z" fill="#60AAFB" fill-opacity="1.000000" fill-rule="nonzero"/>
		<path id="Vector" d="M64.84 8.4L64.84 0C64.84 0 61.08 1.28 60.85 1.37C59.99 1.75 59.26 2.37 58.74 3.16C58.22 3.95 57.94 4.87 57.94 5.82L57.94 16.55L59.73 21L57.94 21C57.94 26.78 57.94 32.01 57.94 32.01C57.94 32.01 61.7 30.73 61.93 30.63C62.79 30.25 63.52 29.63 64.04 28.84C64.55 28.05 64.83 27.13 64.84 26.18L64.84 12.95L63 12.95L64.84 8.4Z" fill="#355DFB" fill-opacity="1.000000" fill-rule="nonzero"/>
		<path id="Vector" d="M73.14 10.01C73.14 9.07 72.86 8.15 72.34 7.36C71.82 6.57 71.09 5.95 70.23 5.57C70 5.47 66.24 4.19 66.24 4.19L66.24 8.44L68.07 12.95L66.24 12.95L66.24 25.8C66.24 25.8 70 24.52 70.23 24.42C71.09 24.04 71.82 23.41 72.34 22.63C72.86 21.84 73.13 20.92 73.14 19.97L73.14 10.01Z" fill="#0000DE" fill-opacity="1.000000" fill-rule="nonzero"/>
	</g>
</svg>
