<svg width="1245.000000" height="174.000000" viewBox="0 0 1245 174" fill="none" xmlns="http://www.w3.org/2000/svg" xmlns:xlink="http://www.w3.org/1999/xlink">
	<desc>
			Created with Pixso.
	</desc>
	<defs>
		<clipPath id="clip29_768">
			<rect id="Frame" rx="-0.500000" width="1244.000000" height="173.000000" transform="matrix(-1 0 0 1 1245.5 0.5)" fill="white" fill-opacity="0"/>
		</clipPath>
	</defs>
	<rect id="Frame" rx="-0.500000" width="1244.000000" height="173.000000" transform="matrix(-1 0 0 1 1245.5 0.5)" fill="#FFFFFF" fill-opacity="0"/>
	<g clip-path="url(#clip29_768)">
		<path id="Vector" d="M1210.07 100.51C1200.54 122.22 1184.89 140.72 1165.03 153.76C1145.17 166.8 1121.93 173.83 1098.15 174L-0.18 174C-0.18 174 0.45 172.16 1.53 169C8.24 149.37 32.53 78.42 34.69 73.42C44.24 51.73 59.9 33.25 79.76 20.22C99.62 7.19 122.84 0.17 146.61 0L1245 0C1245 0 1244.38 1.83 1243.3 5C1236.62 24.62 1212.43 95.57 1210.07 100.51ZM1238.02 5C1218.06 63.72 1207.24 94.84 1205.56 98.36L1205.53 98.43L1205.5 98.5C1200.89 109.01 1195.04 118.48 1187.96 126.91C1180.69 135.56 1172.14 143.11 1162.29 149.58C1152.62 155.93 1142.48 160.72 1131.86 163.96C1121.1 167.24 1109.85 168.92 1098.12 169L6.81 169C26.89 110.22 37.72 79.02 39.28 75.4C43.87 64.98 49.67 55.58 56.7 47.2C63.99 38.5 72.59 30.9 82.5 24.4C92.16 18.06 102.3 13.27 112.91 10.04C123.67 6.76 134.92 5.08 146.65 5L1238.02 5Z" fill="#E1F1FF" fill-opacity="1.000000" fill-rule="evenodd"/>
	</g>
</svg>
